<svg xmlns="http://www.w3.org/2000/svg" xmlns:xlink="http://www.w3.org/1999/xlink" width="1000" zoomAndPan="magnify" viewBox="0 0 750 749.999995" height="1000" preserveAspectRatio="xMidYMid meet" version="1.2"><metadata><ContainsAiGeneratedContent>Yes</ContainsAiGeneratedContent></metadata><g id="22e9d90ca2"><path style=" stroke:none;fill-rule:nonzero;fill:#036bad;fill-opacity:1;" d="M 354.574219 263.8125 L 357.265625 264.195312 C 357.828125 267.101562 358.246094 270.003906 358.585938 272.945312 C 358.953125 276.003906 359.40625 278.992188 360.054688 282.003906 C 360.453125 283.980469 360.753906 285.96875 361.0625 287.964844 C 361.378906 290.019531 361.726562 292.074219 362.097656 294.121094 C 362.515625 296.46875 362.886719 298.824219 363.214844 301.1875 C 363.464844 302.992188 363.726562 304.792969 363.996094 306.597656 L 364.132812 307.546875 C 364.367188 309.109375 364.628906 310.652344 364.957031 312.199219 C 365.507812 314.886719 365.761719 317.613281 366.054688 320.339844 C 366.296875 322.480469 366.667969 324.425781 367.265625 326.5 C 367.5 328.023438 367.667969 329.554688 367.839844 331.089844 C 368.171875 334.246094 368.171875 334.246094 368.8125 337.347656 C 369.292969 339.210938 369.46875 341.054688 369.652344 342.964844 L 369.738281 343.796875 L 369.808594 344.53125 C 369.945312 345.402344 369.945312 345.402344 370.335938 346.429688 C 370.75 347.734375 370.90625 348.910156 371.027344 350.273438 L 371.164062 351.761719 C 371.234375 352.535156 371.304688 353.304688 371.371094 354.078125 C 371.4375 354.828125 371.507812 355.582031 371.578125 356.332031 L 371.699219 357.683594 C 371.8125 358.875 371.8125 358.875 372.648438 359.957031 C 372.824219 360.921875 372.824219 360.921875 372.933594 362.066406 L 373.066406 363.339844 L 373.199219 364.691406 C 373.613281 368.699219 373.613281 368.699219 374.378906 372.648438 C 375.101562 375.65625 375.375 378.71875 375.691406 381.789062 C 375.898438 383.773438 376.152344 385.664062 376.683594 387.589844 C 377.140625 389.515625 377.335938 391.503906 377.597656 393.464844 C 378.066406 396.851562 378.574219 400.222656 379.210938 403.582031 C 379.914062 407.320312 380.46875 411.066406 380.984375 414.832031 C 381.164062 416.113281 381.351562 417.398438 381.542969 418.679688 L 381.710938 419.835938 C 381.835938 420.726562 381.835938 420.726562 382.261719 421.492188 C 382.398438 422.628906 382.519531 423.761719 382.625 424.902344 L 382.722656 425.929688 C 382.863281 427.382812 383 428.832031 383.136719 430.285156 C 383.234375 431.34375 383.335938 432.402344 383.441406 433.460938 L 383.53125 434.460938 C 383.65625 436.105469 383.65625 436.105469 384.1875 437.644531 C 385.84375 433.691406 387.398438 429.8125 388.421875 425.644531 C 388.847656 424.003906 389.359375 422.402344 389.882812 420.792969 C 390.820312 417.890625 391.632812 414.96875 392.40625 412.019531 C 393.402344 408.230469 394.527344 404.503906 395.753906 400.78125 C 396.398438 398.824219 396.992188 396.871094 397.503906 394.871094 L 397.800781 393.710938 C 397.980469 392.996094 398.152344 392.277344 398.316406 391.554688 C 398.820312 389.546875 399.484375 388.183594 400.875 386.640625 C 401.609375 386.007812 402.117188 385.6875 403.03125 385.339844 C 404.140625 385.265625 405.214844 385.234375 406.324219 385.238281 L 407.339844 385.230469 C 408.46875 385.226562 409.597656 385.226562 410.722656 385.226562 C 411.53125 385.226562 412.339844 385.222656 413.144531 385.21875 C 415.339844 385.210938 417.535156 385.210938 419.730469 385.210938 C 421.558594 385.210938 423.390625 385.207031 425.222656 385.203125 C 429.542969 385.199219 433.863281 385.195312 438.183594 385.195312 C 442.640625 385.199219 447.097656 385.1875 451.558594 385.175781 C 455.382812 385.167969 459.207031 385.164062 463.035156 385.164062 C 465.320312 385.164062 467.605469 385.160156 469.890625 385.152344 C 472.042969 385.144531 474.191406 385.144531 476.339844 385.152344 C 477.128906 385.152344 477.917969 385.148438 478.707031 385.144531 C 479.785156 385.140625 480.863281 385.144531 481.9375 385.148438 L 482.886719 385.136719 C 484.445312 385.15625 485.234375 385.289062 486.640625 386.054688 C 487.816406 387.023438 488.492188 387.816406 489.175781 389.183594 C 489.367188 390.25 489.351562 391.195312 489.175781 392.261719 C 488.660156 393.679688 488.171875 394.433594 487.0625 395.457031 C 486.101562 396.109375 486.101562 396.109375 484.945312 396.492188 C 483.933594 396.527344 482.929688 396.542969 481.917969 396.539062 L 480.972656 396.539062 C 479.921875 396.539062 478.875 396.539062 477.824219 396.535156 L 475.574219 396.535156 C 473.535156 396.535156 471.492188 396.535156 469.453125 396.53125 C 467.320312 396.527344 465.191406 396.527344 463.058594 396.527344 C 459.023438 396.527344 454.984375 396.523438 450.949219 396.519531 C 446.351562 396.515625 441.757812 396.511719 437.164062 396.511719 C 427.707031 396.507812 418.253906 396.5 408.800781 396.492188 L 408.488281 397.839844 L 408.078125 399.613281 L 407.875 400.5 C 407.316406 402.890625 406.578125 405.175781 405.722656 407.476562 C 404.644531 410.46875 403.714844 413.421875 403 416.519531 C 401.964844 420.964844 400.667969 425.328125 399.316406 429.6875 C 398.75 431.515625 398.1875 433.34375 397.628906 435.171875 C 396.863281 437.6875 396.125 440.210938 395.417969 442.742188 C 394.527344 445.894531 393.582031 449.027344 392.636719 452.160156 C 391.628906 455.503906 390.636719 458.855469 389.664062 462.207031 C 388.824219 465.113281 387.945312 468.007812 387.023438 470.886719 C 386.566406 472.359375 386.15625 473.84375 385.746094 475.328125 C 385.609375 475.8125 385.476562 476.292969 385.339844 476.789062 C 385.070312 477.757812 384.808594 478.722656 384.546875 479.691406 C 383.320312 484.113281 383.320312 484.113281 381.878906 485.714844 C 381.011719 486.050781 381.011719 486.050781 380.339844 486.101562 C 379.253906 482.722656 378.570312 479.511719 378.222656 475.980469 C 378.070312 474.574219 378.070312 474.574219 377.660156 473.300781 C 377.273438 471.898438 377.050781 470.574219 376.878906 469.136719 L 376.785156 468.371094 C 376.683594 467.574219 376.589844 466.777344 376.492188 465.980469 C 376.03125 461.949219 376.03125 461.949219 375.324219 457.953125 C 374.851562 455.734375 374.652344 453.5 374.425781 451.246094 C 373.902344 446.289062 373.128906 441.398438 372.261719 436.488281 C 371.375 431.410156 370.59375 426.351562 370.011719 421.226562 C 369.453125 416.417969 368.632812 411.648438 367.636719 406.910156 C 367.121094 404.34375 366.851562 401.75 366.550781 399.15625 C 366.335938 397.371094 366.105469 395.617188 365.726562 393.863281 C 365.097656 390.871094 364.90625 387.8125 364.628906 384.773438 C 364.417969 382.617188 364.199219 380.554688 363.617188 378.46875 C 363.132812 376.460938 362.941406 374.382812 362.671875 372.335938 L 362.269531 369.34375 L 362.070312 367.875 C 361.8125 366.019531 361.542969 364.164062 361.253906 362.3125 L 361.125 361.457031 C 360.9375 360.257812 360.707031 359.125 360.34375 357.96875 C 359.769531 355.78125 359.617188 353.574219 359.402344 351.328125 C 359.058594 347.914062 358.648438 344.582031 357.964844 341.222656 C 357.171875 337.246094 356.683594 333.203125 356.109375 329.191406 L 355.9375 327.964844 C 355.777344 326.835938 355.617188 325.703125 355.460938 324.574219 L 355.324219 323.582031 C 355.003906 321.226562 354.769531 318.867188 354.574219 316.5 L 353.804688 316.882812 C 353.484375 317.765625 353.484375 317.765625 353.234375 318.859375 L 352.914062 320.136719 L 352.578125 321.546875 L 352.21875 323.011719 C 350.195312 331.332031 348.378906 339.699219 346.632812 348.082031 C 345.925781 351.464844 345.214844 354.84375 344.382812 358.203125 C 343.042969 363.621094 341.996094 369.109375 340.890625 374.578125 C 340.285156 377.5625 339.664062 380.546875 339.027344 383.527344 C 338.691406 385.117188 338.378906 386.699219 338.140625 388.308594 C 337.574219 392.121094 337.574219 392.121094 336.664062 393.675781 C 335.773438 394.757812 335.003906 395.511719 333.738281 396.132812 C 332.40625 396.574219 331.285156 396.589844 329.878906 396.59375 L 329.046875 396.601562 C 328.128906 396.605469 327.210938 396.605469 326.292969 396.605469 C 325.632812 396.605469 324.972656 396.609375 324.3125 396.613281 C 322.523438 396.617188 320.730469 396.621094 318.941406 396.621094 C 317.824219 396.621094 316.703125 396.621094 315.585938 396.625 C 311.683594 396.632812 307.78125 396.636719 303.878906 396.636719 C 300.242188 396.632812 296.605469 396.644531 292.964844 396.65625 C 289.84375 396.664062 286.71875 396.667969 283.59375 396.667969 C 281.730469 396.667969 279.863281 396.671875 278 396.679688 C 276.246094 396.6875 274.492188 396.6875 272.734375 396.679688 C 272.09375 396.679688 271.449219 396.679688 270.804688 396.6875 C 269.925781 396.691406 269.046875 396.6875 268.167969 396.683594 L 266.679688 396.683594 C 265.347656 396.492188 265.347656 396.492188 264.078125 395.777344 C 262.855469 394.804688 262.191406 394.050781 261.503906 392.648438 C 261.292969 391.449219 261.292969 390.382812 261.503906 389.183594 C 262.195312 387.773438 262.855469 387.023438 264.089844 386.054688 C 265.527344 385.238281 266.335938 385.148438 267.976562 385.15625 L 268.75 385.152344 C 269.597656 385.148438 270.445312 385.15625 271.296875 385.164062 C 271.90625 385.164062 272.515625 385.164062 273.125 385.164062 C 274.78125 385.164062 276.433594 385.171875 278.085938 385.183594 C 279.816406 385.191406 281.542969 385.195312 283.273438 385.195312 C 286.546875 385.199219 289.820312 385.214844 293.09375 385.230469 C 296.820312 385.246094 300.546875 385.253906 304.273438 385.261719 C 311.9375 385.277344 319.601562 385.304688 327.265625 385.339844 L 327.34375 384.621094 L 327.445312 383.679688 L 327.542969 382.746094 C 327.671875 381.707031 327.902344 380.726562 328.179688 379.714844 C 328.625 378.019531 329.015625 376.3125 329.351562 374.59375 L 329.5 373.839844 C 329.941406 371.59375 330.375 369.347656 330.804688 367.101562 C 331.960938 361.042969 333.195312 355.023438 334.71875 349.042969 C 336.164062 343.355469 337.328125 337.601562 338.519531 331.851562 C 339.667969 326.324219 340.867188 320.824219 342.273438 315.355469 C 343.542969 310.359375 344.664062 305.328125 345.800781 300.296875 L 346.101562 298.964844 C 348.222656 289.570312 348.222656 289.570312 350.273438 280.160156 C 351.054688 276.527344 351.867188 272.90625 352.722656 269.292969 L 353.011719 268.035156 L 353.292969 266.871094 L 353.535156 265.839844 C 353.804688 264.964844 353.804688 264.964844 354.574219 263.8125 "/><path style=" stroke:none;fill-rule:nonzero;fill:#fcdb05;fill-opacity:1;" d="M 406.324219 385.238281 L 407.339844 385.230469 C 408.46875 385.226562 409.597656 385.226562 410.722656 385.226562 C 411.53125 385.226562 412.339844 385.222656 413.144531 385.21875 C 415.339844 385.214844 417.535156 385.210938 419.730469 385.210938 C 421.558594 385.210938 423.390625 385.207031 425.222656 385.203125 C 429.542969 385.199219 433.863281 385.195312 438.183594 385.195312 C 442.640625 385.199219 447.097656 385.1875 451.558594 385.175781 C 455.382812 385.167969 459.207031 385.164062 463.035156 385.164062 C 465.320312 385.164062 467.605469 385.160156 469.890625 385.152344 C 472.042969 385.144531 474.191406 385.144531 476.339844 385.152344 C 477.128906 385.152344 477.917969 385.148438 478.707031 385.144531 C 479.785156 385.140625 480.863281 385.144531 481.9375 385.148438 L 482.886719 385.136719 C 484.445312 385.15625 485.234375 385.289062 486.640625 386.054688 C 487.816406 387.023438 488.492188 387.816406 489.175781 389.183594 C 489.367188 390.25 489.351562 391.195312 489.175781 392.261719 C 488.660156 393.679688 488.171875 394.433594 487.0625 395.457031 C 486.101562 396.109375 486.101562 396.109375 484.945312 396.492188 C 483.933594 396.527344 482.929688 396.542969 481.917969 396.539062 L 480.972656 396.539062 C 479.921875 396.539062 478.875 396.539062 477.824219 396.535156 L 475.574219 396.535156 C 473.535156 396.535156 471.492188 396.535156 469.453125 396.53125 C 467.320312 396.527344 465.191406 396.527344 463.058594 396.527344 C 459.023438 396.527344 454.984375 396.523438 450.949219 396.519531 C 446.351562 396.515625 441.757812 396.511719 437.164062 396.511719 C 427.707031 396.507812 418.253906 396.5 408.800781 396.492188 L 408.488281 397.839844 L 408.078125 399.613281 L 407.875 400.5 C 407.316406 402.890625 406.578125 405.175781 405.722656 407.476562 C 404.644531 410.46875 403.714844 413.421875 403 416.519531 C 401.964844 420.964844 400.667969 425.328125 399.316406 429.6875 C 398.84375 431.214844 398.375 432.742188 397.902344 434.273438 L 397.628906 435.171875 C 396.863281 437.6875 396.125 440.210938 395.417969 442.742188 C 394.527344 445.894531 393.582031 449.027344 392.636719 452.160156 C 391.628906 455.503906 390.636719 458.855469 389.664062 462.207031 C 388.824219 465.113281 387.945312 468.007812 387.023438 470.886719 C 386.566406 472.359375 386.15625 473.84375 385.746094 475.328125 L 385.339844 476.789062 C 385.070312 477.757812 384.808594 478.722656 384.546875 479.691406 C 383.320312 484.113281 383.320312 484.113281 381.878906 485.714844 C 381.011719 486.050781 381.011719 486.050781 380.339844 486.101562 C 379.253906 482.722656 378.570312 479.511719 378.222656 475.980469 C 378.070312 474.574219 378.070312 474.574219 377.660156 473.300781 C 377.273438 471.898438 377.050781 470.574219 376.878906 469.136719 L 376.785156 468.371094 C 376.683594 467.574219 376.589844 466.777344 376.492188 465.980469 C 376.03125 461.949219 376.03125 461.949219 375.324219 457.953125 C 374.851562 455.734375 374.652344 453.5 374.425781 451.246094 C 373.902344 446.289062 373.128906 441.398438 372.261719 436.488281 C 371.375 431.410156 370.59375 426.351562 370.011719 421.226562 C 369.453125 416.417969 368.632812 411.648438 367.636719 406.910156 C 367.121094 404.34375 366.851562 401.75 366.550781 399.15625 C 366.289062 396.972656 365.960938 394.847656 365.453125 392.707031 C 365.332031 391.804688 365.449219 391.199219 365.726562 390.339844 L 366.496094 391.878906 L 367.226562 391.851562 L 368.175781 391.828125 L 369.125 391.800781 L 369.957031 391.878906 L 370.726562 392.648438 C 371.285156 392.464844 371.847656 392.277344 372.40625 392.09375 L 373.355469 391.78125 C 374.191406 391.511719 374.191406 391.511719 374.957031 391.109375 L 375.316406 390.339844 L 375.726562 389.570312 L 376.878906 389.183594 L 376.996094 389.96875 C 377.675781 394.503906 378.367188 399.027344 379.210938 403.535156 C 379.914062 407.285156 380.464844 411.050781 380.984375 414.832031 C 381.164062 416.113281 381.351562 417.398438 381.542969 418.679688 L 381.710938 419.835938 C 381.835938 420.726562 381.835938 420.726562 382.261719 421.492188 C 382.398438 422.628906 382.519531 423.761719 382.625 424.902344 L 382.722656 425.929688 C 382.863281 427.382812 383 428.832031 383.136719 430.285156 C 383.238281 431.34375 383.339844 432.402344 383.441406 433.460938 L 383.53125 434.460938 C 383.65625 436.105469 383.65625 436.105469 384.1875 437.644531 C 385.84375 433.691406 387.398438 429.8125 388.421875 425.644531 C 388.847656 424.003906 389.359375 422.402344 389.882812 420.792969 C 390.820312 417.890625 391.632812 414.96875 392.40625 412.019531 C 393.402344 408.230469 394.527344 404.503906 395.753906 400.78125 C 396.398438 398.824219 396.996094 396.871094 397.503906 394.871094 L 397.800781 393.710938 C 397.980469 392.996094 398.152344 392.277344 398.316406 391.554688 C 398.820312 389.546875 399.484375 388.183594 400.875 386.640625 C 402.550781 385.195312 404.1875 385.230469 406.324219 385.238281 "/><path style=" stroke:none;fill-rule:nonzero;fill:#2a292a;fill-opacity:1;" d="M 463.039062 315.039062 C 468.488281 317.402344 473.25 321.449219 476.871094 326.113281 C 480.308594 331.054688 482.660156 336.265625 483.40625 342.265625 C 483.539062 344.074219 483.644531 345.851562 483.40625 347.648438 C 482.632812 349.214844 481.746094 350.09375 480.332031 351.113281 C 479.332031 351.613281 478.605469 351.542969 477.484375 351.542969 L 476.148438 351.542969 L 474.671875 351.539062 L 473.128906 351.539062 C 471.726562 351.539062 470.324219 351.539062 468.921875 351.535156 C 467.460938 351.53125 465.996094 351.53125 464.53125 351.53125 C 461.757812 351.53125 458.984375 351.527344 456.210938 351.523438 C 453.054688 351.519531 449.898438 351.515625 446.742188 351.515625 C 440.246094 351.511719 433.753906 351.503906 427.257812 351.496094 C 427.558594 352.488281 427.863281 353.476562 428.167969 354.46875 L 428.421875 355.3125 C 429.503906 358.820312 431.425781 361.804688 433.894531 364.523438 C 436.828125 367.207031 440.675781 369.457031 444.566406 370.339844 C 448.808594 370.933594 453.03125 371.007812 457.074219 369.425781 C 461.296875 367.449219 464.761719 364.769531 467.640625 361.109375 C 469.042969 361.332031 470.082031 361.707031 471.308594 362.417969 L 472.273438 362.976562 L 473.265625 363.5625 L 474.265625 364.140625 C 476.929688 365.695312 476.929688 365.695312 478.023438 366.878906 C 475.171875 370.757812 472.078125 373.878906 468.023438 376.492188 L 467.15625 377.09375 C 462.652344 380.039062 457.191406 381.617188 451.851562 381.921875 C 445.441406 382.210938 439.21875 381.261719 433.414062 378.417969 C 427.8125 375.355469 423.019531 371.109375 419.625 365.695312 C 416.367188 360.261719 414.625 354.59375 414.386719 348.25 C 414.300781 341.445312 415.78125 335.199219 419.082031 329.238281 C 420.332031 327.132812 421.800781 325.257812 423.414062 323.421875 L 424.164062 322.554688 C 428.019531 318.414062 433.273438 315.398438 438.644531 313.753906 C 446.910156 311.3125 455.039062 311.796875 463.039062 315.039062 M 437.660156 326.445312 C 436.601562 327.195312 435.570312 327.980469 434.566406 328.804688 L 433.8125 329.414062 C 431.164062 331.785156 429.34375 335.371094 428.027344 338.636719 C 427.554688 340.035156 427.554688 340.035156 427.644531 341.882812 L 470.332031 341.882812 L 470.71875 341.113281 C 469.425781 336.746094 467.382812 332.546875 464.257812 329.214844 C 462.8125 327.859375 461.246094 326.769531 459.5625 325.730469 L 458.824219 325.261719 C 456.085938 323.710938 452.644531 323.015625 449.515625 322.917969 C 445.199219 323.265625 441.371094 324.109375 437.660156 326.445312 M 303.242188 314.398438 C 306.007812 315.8125 308.382812 317.554688 310.730469 319.574219 L 311.523438 320.214844 L 312.246094 320.800781 L 312.855469 321.296875 C 313.585938 322.054688 314.0625 322.894531 314.574219 323.804688 C 313.613281 324.472656 312.652344 325.136719 311.691406 325.800781 L 310.878906 326.363281 C 309.066406 327.613281 307.222656 328.8125 305.347656 329.960938 L 304.851562 329.417969 C 302.710938 327.101562 300.246094 325.25 297.273438 324.148438 C 293.835938 323.199219 290.660156 323.125 287.175781 323.855469 C 285.425781 324.34375 284.085938 324.90625 282.789062 326.191406 C 281.820312 327.484375 281.324219 328.746094 281.117188 330.34375 C 281.191406 332.148438 281.683594 333.464844 282.609375 335.007812 C 285.484375 338.035156 289.8125 339.429688 293.660156 340.78125 C 306.785156 345.417969 306.785156 345.417969 311.15625 350.519531 C 313.074219 352.960938 314.421875 355.339844 314.960938 358.417969 C 315.339844 362.34375 315.296875 366.3125 313.929688 370.050781 C 312.445312 373.148438 310.007812 375.613281 307.269531 377.648438 C 303.234375 380.226562 298.683594 381.386719 293.945312 381.640625 C 288.507812 381.808594 283.699219 381.230469 278.714844 378.921875 C 274.261719 376.507812 270.734375 373.199219 267.273438 369.570312 C 267.671875 368.566406 268.054688 368.019531 268.871094 367.292969 L 269.882812 366.535156 L 270.980469 365.710938 L 272.128906 364.859375 L 273.285156 363.992188 C 274.226562 363.285156 275.171875 362.582031 276.117188 361.878906 C 276.546875 362.242188 276.976562 362.609375 277.40625 362.972656 L 278.132812 363.589844 C 278.808594 364.1875 278.808594 364.1875 279.722656 365.148438 C 282.171875 367.480469 285.140625 369.148438 288.355469 370.179688 C 291.28125 370.738281 294.503906 370.644531 297.316406 369.667969 C 298.789062 369.039062 300.039062 368.472656 301.117188 367.265625 C 302.039062 365.691406 302.597656 364.246094 302.824219 362.433594 C 302.578125 360.507812 302.140625 358.960938 301.027344 357.347656 C 297.191406 353.011719 290.707031 351.285156 285.4375 349.335938 C 280.699219 347.578125 276.027344 345.535156 272.582031 341.714844 C 270.574219 339.164062 269.394531 336.613281 268.8125 333.421875 C 268.449219 329.683594 268.792969 326.019531 270.347656 322.574219 C 271.871094 319.898438 274.234375 317.558594 276.765625 315.824219 C 284.585938 311.332031 295.003906 310.800781 303.242188 314.398438 "/><path style=" stroke:none;fill-rule:nonzero;fill:#418682;fill-opacity:1;" d="M 371.878906 364.570312 L 371.878906 365.339844 L 373.03125 365.339844 C 374.183594 370.859375 375.160156 376.34375 375.730469 381.953125 C 375.980469 384.398438 376.347656 386.78125 376.878906 389.183594 L 375.726562 389.953125 L 375.414062 390.699219 C 374.957031 391.492188 374.957031 391.492188 373.898438 392.140625 C 372.691406 392.628906 371.628906 392.878906 370.339844 393.03125 L 369.957031 391.878906 L 369.1875 392.261719 C 367.863281 392.40625 367.863281 392.40625 366.496094 392.261719 C 365.742188 391.28125 365.375 390.496094 365.117188 389.285156 L 365.003906 388.15625 L 364.867188 386.902344 C 364.824219 386.472656 364.785156 386.046875 364.742188 385.605469 C 364.375 381.992188 364.375 381.992188 363.609375 378.457031 C 363.179688 376.644531 363.011719 374.78125 362.792969 372.9375 L 362.636719 371.683594 C 362.4375 370.066406 362.265625 368.511719 362.265625 366.878906 C 363.820312 366.242188 365.226562 365.6875 366.902344 365.507812 C 368.5625 365.324219 370.242188 364.570312 371.878906 364.570312 "/><path style=" stroke:none;fill-rule:nonzero;fill:#98ad4a;fill-opacity:1;" d="M 374.1875 378.03125 L 374.957031 378.03125 C 375.558594 379.234375 375.5625 380.554688 375.699219 381.878906 C 375.972656 384.34375 376.320312 386.765625 376.878906 389.183594 L 375.726562 389.953125 L 375.414062 390.699219 C 374.957031 391.492188 374.957031 391.492188 373.898438 392.140625 C 372.691406 392.628906 371.628906 392.878906 370.339844 393.03125 L 369.957031 391.878906 L 369.1875 392.261719 C 367.863281 392.40625 367.863281 392.40625 366.496094 392.261719 C 365.566406 391.136719 365.328125 390.269531 365.058594 388.828125 C 364.996094 388.269531 364.9375 387.707031 364.882812 387.140625 L 364.789062 386.300781 C 364.589844 384.433594 364.542969 382.601562 364.570312 380.722656 L 365.65625 380.765625 C 368.65625 380.90625 368.65625 380.90625 371.542969 380.242188 C 372.601562 379.601562 373.347656 378.933594 374.1875 378.03125 "/></g></svg>